<mxfile host="app.diagrams.net" modified="2021-08-05T11:53:19.187Z" agent="5.0 (Windows NT 10.0; Win64; x64) AppleWebKit/537.36 (KHTML, like Gecko) Chrome/92.0.4515.115 Safari/537.36" etag="rxge91bQ8jm_IJIqMZ8l" version="14.9.4" type="github">
  <diagram id="C5RBs43oDa-KdzZeNtuy" name="Page-1">
    <mxGraphModel dx="1221" dy="639" grid="1" gridSize="10" guides="1" tooltips="1" connect="1" arrows="1" fold="1" page="1" pageScale="1" pageWidth="1169" pageHeight="827" background="#D5E8D4" math="0" shadow="0">
      <root>
        <mxCell id="WIyWlLk6GJQsqaUBKTNV-0" />
        <mxCell id="WIyWlLk6GJQsqaUBKTNV-1" parent="WIyWlLk6GJQsqaUBKTNV-0" />
        <mxCell id="WIyWlLk6GJQsqaUBKTNV-2" value="wh send msg" style="rounded=0;html=1;jettySize=auto;orthogonalLoop=1;fontSize=15;endArrow=block;endFill=0;endSize=8;strokeWidth=1;shadow=0;labelBackgroundColor=none;edgeStyle=orthogonalEdgeStyle;entryX=0;entryY=0.5;entryDx=0;entryDy=0;" parent="WIyWlLk6GJQsqaUBKTNV-1" source="WIyWlLk6GJQsqaUBKTNV-3" target="PkTFUzZBXofJFZWry4sA-0" edge="1">
          <mxGeometry y="10" relative="1" as="geometry">
            <mxPoint x="260" y="55" as="targetPoint" />
            <mxPoint as="offset" />
          </mxGeometry>
        </mxCell>
        <mxCell id="WIyWlLk6GJQsqaUBKTNV-3" value="Client clicked whatsapp for 5% discount" style="rounded=1;whiteSpace=wrap;html=1;fontSize=15;glass=0;strokeWidth=1;shadow=0;" parent="WIyWlLk6GJQsqaUBKTNV-1" vertex="1">
          <mxGeometry x="20" y="30" width="140" height="70" as="geometry" />
        </mxCell>
        <mxCell id="PkTFUzZBXofJFZWry4sA-2" value="YES" style="edgeStyle=orthogonalEdgeStyle;rounded=0;orthogonalLoop=1;jettySize=auto;html=1;fontSize=15;" edge="1" parent="WIyWlLk6GJQsqaUBKTNV-1" source="PkTFUzZBXofJFZWry4sA-0" target="PkTFUzZBXofJFZWry4sA-1">
          <mxGeometry relative="1" as="geometry" />
        </mxCell>
        <mxCell id="PkTFUzZBXofJFZWry4sA-24" value="NO" style="edgeStyle=orthogonalEdgeStyle;rounded=0;orthogonalLoop=1;jettySize=auto;html=1;fontSize=15;" edge="1" parent="WIyWlLk6GJQsqaUBKTNV-1" source="PkTFUzZBXofJFZWry4sA-0" target="PkTFUzZBXofJFZWry4sA-15">
          <mxGeometry relative="1" as="geometry" />
        </mxCell>
        <mxCell id="PkTFUzZBXofJFZWry4sA-0" value="Are you here to receive ...." style="rounded=1;whiteSpace=wrap;html=1;fontSize=15;" vertex="1" parent="WIyWlLk6GJQsqaUBKTNV-1">
          <mxGeometry x="330" y="35" width="140" height="60" as="geometry" />
        </mxCell>
        <mxCell id="PkTFUzZBXofJFZWry4sA-4" value="go to back store" style="edgeStyle=orthogonalEdgeStyle;rounded=0;orthogonalLoop=1;jettySize=auto;html=1;fontSize=15;" edge="1" parent="WIyWlLk6GJQsqaUBKTNV-1" source="PkTFUzZBXofJFZWry4sA-1" target="PkTFUzZBXofJFZWry4sA-3">
          <mxGeometry x="0.0012" y="15" relative="1" as="geometry">
            <mxPoint as="offset" />
          </mxGeometry>
        </mxCell>
        <mxCell id="PkTFUzZBXofJFZWry4sA-1" value="link with discount" style="whiteSpace=wrap;html=1;rounded=1;fontSize=15;" vertex="1" parent="WIyWlLk6GJQsqaUBKTNV-1">
          <mxGeometry x="610" y="32.5" width="140" height="55" as="geometry" />
        </mxCell>
        <mxCell id="PkTFUzZBXofJFZWry4sA-6" value="then we send msg (web hook OR API)" style="edgeStyle=orthogonalEdgeStyle;rounded=0;orthogonalLoop=1;jettySize=auto;html=1;fontSize=15;" edge="1" parent="WIyWlLk6GJQsqaUBKTNV-1" source="PkTFUzZBXofJFZWry4sA-3" target="PkTFUzZBXofJFZWry4sA-5">
          <mxGeometry relative="1" as="geometry" />
        </mxCell>
        <mxCell id="PkTFUzZBXofJFZWry4sA-3" value="client made a purchase" style="whiteSpace=wrap;html=1;rounded=1;fillColor=#dae8fc;strokeColor=#6c8ebf;fontSize=15;" vertex="1" parent="WIyWlLk6GJQsqaUBKTNV-1">
          <mxGeometry x="940" y="32.5" width="120" height="60" as="geometry" />
        </mxCell>
        <mxCell id="PkTFUzZBXofJFZWry4sA-8" value="" style="edgeStyle=orthogonalEdgeStyle;rounded=0;orthogonalLoop=1;jettySize=auto;html=1;fontSize=15;" edge="1" parent="WIyWlLk6GJQsqaUBKTNV-1" source="PkTFUzZBXofJFZWry4sA-5" target="PkTFUzZBXofJFZWry4sA-7">
          <mxGeometry relative="1" as="geometry" />
        </mxCell>
        <mxCell id="PkTFUzZBXofJFZWry4sA-10" value="" style="edgeStyle=orthogonalEdgeStyle;rounded=0;orthogonalLoop=1;jettySize=auto;html=1;fontSize=15;" edge="1" parent="WIyWlLk6GJQsqaUBKTNV-1" source="PkTFUzZBXofJFZWry4sA-5" target="PkTFUzZBXofJFZWry4sA-9">
          <mxGeometry relative="1" as="geometry" />
        </mxCell>
        <mxCell id="PkTFUzZBXofJFZWry4sA-5" value="thank you for your purchase! your order #{order_number} is being processed" style="whiteSpace=wrap;html=1;rounded=1;fontSize=15;" vertex="1" parent="WIyWlLk6GJQsqaUBKTNV-1">
          <mxGeometry x="925" y="324" width="150" height="90" as="geometry" />
        </mxCell>
        <mxCell id="PkTFUzZBXofJFZWry4sA-7" value="you can check:&lt;br style=&quot;font-size: 15px;&quot;&gt;1. order status&lt;br style=&quot;font-size: 15px;&quot;&gt;2. back to main menu" style="whiteSpace=wrap;html=1;rounded=1;fontSize=15;" vertex="1" parent="WIyWlLk6GJQsqaUBKTNV-1">
          <mxGeometry x="747.5" y="430" width="155" height="90" as="geometry" />
        </mxCell>
        <mxCell id="PkTFUzZBXofJFZWry4sA-14" value="YES" style="edgeStyle=orthogonalEdgeStyle;rounded=0;orthogonalLoop=1;jettySize=auto;html=1;fontSize=15;" edge="1" parent="WIyWlLk6GJQsqaUBKTNV-1" source="PkTFUzZBXofJFZWry4sA-9" target="PkTFUzZBXofJFZWry4sA-13">
          <mxGeometry x="0.5" y="-10" relative="1" as="geometry">
            <mxPoint as="offset" />
          </mxGeometry>
        </mxCell>
        <mxCell id="PkTFUzZBXofJFZWry4sA-23" value="NO" style="edgeStyle=orthogonalEdgeStyle;rounded=0;orthogonalLoop=1;jettySize=auto;html=1;entryX=1;entryY=0.5;entryDx=0;entryDy=0;fontSize=15;" edge="1" parent="WIyWlLk6GJQsqaUBKTNV-1" source="PkTFUzZBXofJFZWry4sA-9" target="PkTFUzZBXofJFZWry4sA-15">
          <mxGeometry relative="1" as="geometry" />
        </mxCell>
        <mxCell id="PkTFUzZBXofJFZWry4sA-9" value="got a minute to share your experience with us?" style="whiteSpace=wrap;html=1;rounded=1;fontSize=15;" vertex="1" parent="WIyWlLk6GJQsqaUBKTNV-1">
          <mxGeometry x="750" y="230" width="150" height="80" as="geometry" />
        </mxCell>
        <mxCell id="PkTFUzZBXofJFZWry4sA-20" value="YES" style="edgeStyle=orthogonalEdgeStyle;rounded=0;orthogonalLoop=1;jettySize=auto;html=1;fontSize=15;entryX=0.5;entryY=0;entryDx=0;entryDy=0;" edge="1" parent="WIyWlLk6GJQsqaUBKTNV-1" source="PkTFUzZBXofJFZWry4sA-11" target="PkTFUzZBXofJFZWry4sA-19">
          <mxGeometry relative="1" as="geometry">
            <mxPoint x="85" y="310" as="targetPoint" />
          </mxGeometry>
        </mxCell>
        <mxCell id="PkTFUzZBXofJFZWry4sA-25" value="NO" style="edgeStyle=orthogonalEdgeStyle;rounded=0;orthogonalLoop=1;jettySize=auto;html=1;entryX=0;entryY=0.5;entryDx=0;entryDy=0;fontSize=15;" edge="1" parent="WIyWlLk6GJQsqaUBKTNV-1" target="PkTFUzZBXofJFZWry4sA-15">
          <mxGeometry relative="1" as="geometry">
            <mxPoint x="150" y="100" as="targetPoint" />
            <mxPoint x="224" y="200" as="sourcePoint" />
          </mxGeometry>
        </mxCell>
        <mxCell id="PkTFUzZBXofJFZWry4sA-11" value="would you like to reffer to your friends? you and your friends can get 5% discount." style="whiteSpace=wrap;html=1;rounded=1;fontSize=15;" vertex="1" parent="WIyWlLk6GJQsqaUBKTNV-1">
          <mxGeometry x="20" y="150" width="200" height="110" as="geometry" />
        </mxCell>
        <mxCell id="PkTFUzZBXofJFZWry4sA-18" style="edgeStyle=orthogonalEdgeStyle;rounded=0;orthogonalLoop=1;jettySize=auto;html=1;entryX=1;entryY=0.833;entryDx=0;entryDy=0;entryPerimeter=0;fontSize=15;" edge="1" parent="WIyWlLk6GJQsqaUBKTNV-1" source="PkTFUzZBXofJFZWry4sA-13" target="PkTFUzZBXofJFZWry4sA-11">
          <mxGeometry relative="1" as="geometry" />
        </mxCell>
        <mxCell id="PkTFUzZBXofJFZWry4sA-13" value="Type review" style="whiteSpace=wrap;html=1;rounded=1;fontSize=15;" vertex="1" parent="WIyWlLk6GJQsqaUBKTNV-1">
          <mxGeometry x="360" y="290" width="120" height="70" as="geometry" />
        </mxCell>
        <mxCell id="PkTFUzZBXofJFZWry4sA-15" value="Send Main Menu" style="whiteSpace=wrap;html=1;rounded=1;fillColor=#fff2cc;strokeColor=#d6b656;fontSize=15;" vertex="1" parent="WIyWlLk6GJQsqaUBKTNV-1">
          <mxGeometry x="320" y="160" width="160" height="80" as="geometry" />
        </mxCell>
        <mxCell id="PkTFUzZBXofJFZWry4sA-28" value="If friend make a purchase &lt;br style=&quot;font-size: 15px;&quot;&gt;then we send" style="edgeStyle=orthogonalEdgeStyle;rounded=0;orthogonalLoop=1;jettySize=auto;html=1;fontSize=15;" edge="1" parent="WIyWlLk6GJQsqaUBKTNV-1" source="PkTFUzZBXofJFZWry4sA-19" target="PkTFUzZBXofJFZWry4sA-27">
          <mxGeometry relative="1" as="geometry" />
        </mxCell>
        <mxCell id="PkTFUzZBXofJFZWry4sA-19" value="We send link with discount code." style="whiteSpace=wrap;html=1;rounded=1;fontSize=15;" vertex="1" parent="WIyWlLk6GJQsqaUBKTNV-1">
          <mxGeometry x="47.5" y="400" width="145" height="84" as="geometry" />
        </mxCell>
        <mxCell id="PkTFUzZBXofJFZWry4sA-30" value="" style="edgeStyle=orthogonalEdgeStyle;rounded=0;orthogonalLoop=1;jettySize=auto;html=1;fontSize=15;" edge="1" parent="WIyWlLk6GJQsqaUBKTNV-1" source="PkTFUzZBXofJFZWry4sA-27" target="PkTFUzZBXofJFZWry4sA-29">
          <mxGeometry relative="1" as="geometry" />
        </mxCell>
        <mxCell id="PkTFUzZBXofJFZWry4sA-27" value="Hi there! Your refferal code was successful and you get 5% discount. Please use this discount in your next order: {random_slug}" style="whiteSpace=wrap;html=1;rounded=1;fontSize=15;" vertex="1" parent="WIyWlLk6GJQsqaUBKTNV-1">
          <mxGeometry x="320" y="500" width="230" height="119" as="geometry" />
        </mxCell>
        <mxCell id="PkTFUzZBXofJFZWry4sA-29" value="Send main menu" style="whiteSpace=wrap;html=1;rounded=1;fontSize=15;fillColor=#fff2cc;strokeColor=#d6b656;" vertex="1" parent="WIyWlLk6GJQsqaUBKTNV-1">
          <mxGeometry x="357.5" y="660" width="155" height="80" as="geometry" />
        </mxCell>
      </root>
    </mxGraphModel>
  </diagram>
</mxfile>
